<?xml version="1.0" encoding="utf-8"?>
<!-- Generator: Adobe Illustrator 23.0.6, SVG Export Plug-In . SVG Version: 6.00 Build 0)  -->
<svg version="1.1" id="Layer_1" xmlns="http://www.w3.org/2000/svg" xmlns:xlink="http://www.w3.org/1999/xlink" x="0px" y="0px"
	 viewBox="0 0 24 24" style="enable-background:new 0 0 24 24;" xml:space="preserve">
<path d="M23.2,18.9H13c-0.3,0-0.5-0.2-0.5-0.5s0.2-0.5,0.5-0.5h10.2c0.3,0,0.5,0.2,0.5,0.5S23.5,18.9,23.2,18.9z M23.2,20.4H13
	c-0.3,0-0.5-0.2-0.5-0.5c0-0.3,0.2-0.5,0.5-0.5h10.2c0.3,0,0.5,0.2,0.5,0.5C23.7,20.2,23.5,20.4,23.2,20.4z M23.2,21.9H13
	c-0.3,0-0.5-0.2-0.5-0.5c0-0.3,0.2-0.5,0.5-0.5h10.2c0.3,0,0.5,0.2,0.5,0.5C23.7,21.7,23.5,21.9,23.2,21.9z M17.9,23.4H13
	c-0.3,0-0.5-0.2-0.5-0.5s0.2-0.5,0.5-0.5h4.8c0.3,0,0.5,0.2,0.5,0.5C18.4,23.2,18.1,23.4,17.9,23.4L17.9,23.4z M12.2,0.6
	c-4.1,0-7.5,3.4-7.5,7.5s3.4,7.5,7.5,7.5c4.2,0,7.5-3.4,7.5-7.5C19.8,4,16.4,0.6,12.2,0.6z M12.2,14.5c-3.5,0-6.4-2.8-6.4-6.4
	s2.9-6.4,6.4-6.4c3.5,0,6.4,2.9,6.4,6.4S15.7,14.5,12.2,14.5z M14,8.1c0-1-0.8-1.8-1.7-1.8c-1,0-1.7,0.8-1.7,1.7s0.8,1.7,1.7,1.7
	C13.2,9.8,14,9.1,14,8.1z M11.6,8.1c0-0.3,0.3-0.6,0.6-0.6c0.3,0,0.6,0.3,0.6,0.6c0,0.3-0.3,0.6-0.6,0.6C11.9,8.7,11.6,8.4,11.6,8.1
	z M18,8.6C18,8.5,18,8.3,18,8.1C18,7,17.7,5.9,17.1,5c0-0.1-0.1-0.2-0.2-0.3c-1.1-1.5-2.8-2.4-4.7-2.4c-1.9,0-3.6,1-4.7,2.4
	C7.4,4.8,7.4,4.9,7.3,5C6.8,5.9,6.4,7,6.4,8.1c0,0.2,0,0.3,0.1,0.5c0,0,0,0,0,0c0,0.1,0,0.2,0,0.3c0.3,2.3,2,4.2,4.3,4.8
	c0.1,0,0.1,0,0.2,0.1c0.4,0.1,0.8,0.1,1.2,0.1c0.4,0,0.8-0.1,1.2-0.1c0.1,0,0.1,0,0.2-0.1c2.2-0.6,4-2.5,4.3-4.8
	C18,8.8,18,8.7,18,8.6C18,8.6,18,8.6,18,8.6z M15.2,4.6h-6c0.8-0.7,1.9-1.2,3-1.2C13.4,3.5,14.4,3.9,15.2,4.6z M7.8,9.5
	C9.1,10,10,11,10.4,12.3C9.2,11.8,8.2,10.8,7.8,9.5z M11.6,12.7c-0.3-2.2-1.8-3.9-4-4.4c0-0.1,0-0.1,0-0.2c0-0.9,0.2-1.6,0.7-2.3h8
	c0.4,0.7,0.7,1.5,0.7,2.3c0,0.1,0,0.1,0,0.2c-2.1,0.5-3.7,2.2-4,4.4c-0.2,0-0.4,0.1-0.6,0.1C12,12.7,11.8,12.7,11.6,12.7z
	 M14.1,12.4c0.3-1.3,1.3-2.4,2.5-2.8C16.2,10.8,15.3,11.8,14.1,12.4z M19,22.4c-0.2,0-0.4,0.2-0.4,0.5s0.2,0.5,0.4,0.5
	s0.4-0.2,0.4-0.5C19.4,22.7,19.2,22.4,19,22.4z M20,22.4c-0.2,0-0.4,0.2-0.4,0.5s0.2,0.5,0.4,0.5c0.2,0,0.4-0.2,0.4-0.5
	C20.3,22.7,20.2,22.4,20,22.4z M20.9,22.4c-0.2,0-0.4,0.2-0.4,0.5s0.2,0.5,0.4,0.5c0.2,0,0.4-0.2,0.4-0.5
	C21.3,22.7,21.2,22.4,20.9,22.4z M10.8,21.4v-1.5c0-1.1-1-2-2.2-2H2.5c-1.2,0-2.2,0.9-2.2,2v1.5c0,1.1,1,2,2.2,2h6.2
	C9.8,23.4,10.8,22.5,10.8,21.4z"/>
</svg>
